{"title":"Nothing to Lose-[1997][DvDrip]-Demonuk[NIKONRG]","uid":4341472,"size":734006745,"categoryP":"video","categoryS":"movies","magnet":"?xt=urn:btih:a4a570d93a34523052160af544e5cf551f866368&amp;dn=Nothing+to+Lose-%5B1997%5D%5BDvDrip%5D-Demonuk%5BNIKONRG%5D&amp;tr=udp%3A%2F%2Ftracker.openbittorrent.com%3A80&amp;tr=udp%3A%2F%2Fopen.demonii.com%3A1337&amp;tr=udp%3A%2F%2Ftracker.coppersurfer.tk%3A6969&amp;tr=udp%3A%2F%2Fexodus.desync.com%3A6969","seeders":2,"leechers":0,"uploader":"demonuk","files":3,"time":1218627987,"description":"Nothing to Lose-[1997][DvDrip]-Demonuk[NIKONRG]\n__________________\nMOVIE INFORMATION\n__________________\nTITLE.............:Nothing to Lose\nDIRECTOR..........:Steve Oedekerk\nYEAR..............: 1997\nRUNTIME...........:1h 33mn\nGENRE.............:Action | Adventure | Comedy | Crime\nFORMAT.............:AVI\nFormat/Info.........:Audio Video Interleave\nFile size..........:700 MiB\nDuration..........:1h 33mn\nOveral bit rate....1042 Kbps\nSOURCE............:PAL DVD\nSIZE..............:700mb\nIMDB..............: http://www.imdb.com/title/tt0119807/\nUSER RATING............: 6.4/10 (11,680 votes)\n__________________\nVIDEO INFORMATION\n__________________\nFormat: MPEG-4 Visual\nFormat profile: Streaming Video@L1\nFormat settings, BVOP: Yes\nFormat settings, QPel: No\nFormat settings, GMC: No warppoints\nFormat settings, Matrix: Custom\nCodec ID: XVID\nCodec ID/Hint: XviD\nDuration: 1h 33mn\nBit rate: 914 Kbps\nWidth: 720 pixels\nHeight: 400 pixels\nDisplay aspect ratio: 16/9\nFrame rate: 25.000 fps\nResolution: 8 bits\nColorimetry: 4:2:0\nScan type: Progressive\nBits/(Pixel*Frame): 0.127\nStream size: 614 MiB (88%)\n\n__________________\nAUDIO INFORMATION\n__________________\nFormat: MPEG Audio\nFormat version: Version 1\nFormat profile: Layer 3\nCodec ID: 55\nCodec ID/Hint: MP3\nDuration: 1h 33mn\nBit rate mode: Variable\nBit rate: 115 Kbps\nMinimum bit rate: 128 Kbps\nChannel(s): 2 channels\nSampling rate: 48.0 KHz\nResolution: 16 bits\nStream size: 77.0 MiB (11%)\nWriting library: LAME3.97 \nEncoding settings: ABR\n\n__________________\nMAIN CAST\n__________________\nMartin Lawrence... Terrance Paul Davidson\nTim Robbins... Nick Beam\nJohn C. McGinley... Davis &amp;#039;Rig&amp;#039; Lanlow\nGiancarlo Esposito... Charlie Dunt\nKelly Preston... Ann Beam\n\n\n__________________\nPLOT OUTLINE\n__________________\nWhen a man (Robbins) believes he has discovered that his wife is having an affair with his boss,\n it sets off a chain reaction of events. First he wanders into a ghetto where a robber (Lawrence)\n tries to take his money at gunpoint, but instead sets a wild ride from California to Arizona.\n The two eventually become reluctant friends. Discussing robbery techniques,\n they decide to get back at the boss by robbing an office safe containing hundreds of thousands\n of dollars. Life is further complicated by another pair of robbers who chase the first two for infringing\n on their territory. \n__________________\nInfo hash:A4A570D93A34523052160AF544E5CF551F866368\nTracker announce:\nTracker announce: http://open.tracker.thepiratebay.se:80/announce\nTracker Scrape:\n\n__________________\nContents of download:\n\nNothing to Lose-[1997][DvDrip]-Demonuk[NIKONRG].avi (700MB)\nNothing to Lose.info.txt (1.14 Kb)\nTorrent downloaded from(47bytes)\n___________________________________________________________________\n\nFor Detailed Information on New Releases and Popular Requests from the most trusted of uploaders goto\n &lt;a href=&quot;\nhttp://www.nikonxp.com&quot; rel=&quot;nofollow&quot; target=&quot;_NEW&quot;&gt;\nhttp://www.nikonxp.com&lt;/a&gt;\n","torrent":{"xt":"urn:btih:a4a570d93a34523052160af544e5cf551f866368","amp;dn":"Nothing+to+Lose-%5B1997%5D%5BDvDrip%5D-Demonuk%5BNIKONRG%5D","amp;tr":["udp%3A%2F%2Ftracker.openbittorrent.com%3A80","udp%3A%2F%2Fopen.demonii.com%3A1337","udp%3A%2F%2Ftracker.coppersurfer.tk%3A6969","udp%3A%2F%2Fexodus.desync.com%3A6969"],"infoHash":"a4a570d93a34523052160af544e5cf551f866368","infoHashBuffer":{"type":"Buffer","data":[164,165,112,217,58,52,82,48,82,22,10,245,68,229,207,85,31,134,99,104]},"announce":[],"urlList":[]}}